<svg xmlns="http://www.w3.org/2000/svg" width="114" height="111" viewBox="0 0 114 111">
    <g fill="none" fill-rule="evenodd">
        <g>
            <path fill="#FFF" d="M0 0H1440V2804H0z" transform="translate(-662 -621)"/>
            <g>
                <path d="M0 111L112 111 112 0 0 0z" transform="translate(-662 -621) translate(664 620)"/>
                <g fill-rule="nonzero">
                    <g>
                        <g>
                            <path fill="#F4DCE6" d="M14 83.51S9.783 64.016.35 55.344c0 0 24.5-11.985 32.532-20.24 3.613-3.889 7.534-7.485 11.726-10.753 0 0 9.135 21.766 18.007 28.01 0 0-8.365 11.377-48.615 31.15z" transform="translate(-662 -621) translate(664 620) translate(19.25 12.14) translate(3.5 1.734)"/>
                            <path fill="#F48797" d="M13.633 47.695c-.928.503-1.838-10.545-9.258-15.61 0 0 36.208-17.62 44.625-30.593 0 0 5.25 18.158 17.99 28.027-4.226 4.016-8.852 7.595-13.807 10.684L44.608 24.28S35 36.421 13.633 47.695z" transform="translate(-662 -621) translate(664 620) translate(19.25 12.14) translate(3.5 1.734)"/>
                        </g>
                        <g fill="#4C4C4C">
                            <path d="M1.627 57.234c3.642 4.02 6.667 8.549 8.978 13.442 2.536 4.776 4.352 9.895 5.39 15.193.35 2.15 3.64 1.231 3.29-.885-1.11-5.591-3.044-10.991-5.74-16.025-2.458-5.139-5.66-9.895-9.502-14.118-1.523-1.578-3.938.815-2.416 2.393z" transform="translate(-662 -621) translate(664 620) translate(19.25 12.14)"/>
                            <path d="M3.29 57.633c17.494-6.456 33.271-16.783 46.13-30.195 1.523-1.578-.892-3.972-2.398-2.394C34.584 38.055 19.317 48.086 2.38 54.373c-2.03.745-1.155 4.023.91 3.26z" transform="translate(-662 -621) translate(664 620) translate(19.25 12.14)"/>
                            <path d="M46.987 27.004c4.28 10.009 9.99 19.355 16.958 27.75 1.383 1.735 3.78-.71 2.398-2.393-6.75-8.207-12.278-17.33-16.416-27.091-.227-.671-.844-1.138-1.558-1.179-.713-.04-1.38.353-1.684.994-.304.64-.184 1.4.302 1.92z" transform="translate(-662 -621) translate(664 620) translate(19.25 12.14)"/>
                            <path d="M19.11 86.719C36.928 79.182 53.28 68.617 67.427 55.5c1.593-1.492-.822-3.885-2.415-2.393-13.941 12.91-30.057 23.3-47.617 30.698-2.012.85-.28 3.764 1.75 2.914h-.035zM6.003 34.34c4.03 4.477 7.32 9.558 9.747 15.055.49.793 1.526 1.06 2.345.607.8-.487 1.07-1.512.613-2.324C16.128 41.934 12.65 36.631 8.4 31.965c-1.505-1.579-3.92.815-2.415 2.376h.018z" transform="translate(-662 -621) translate(664 620) translate(19.25 12.14)"/>
                            <path d="M7.683 34.774C25.17 28.307 40.945 17.981 53.813 4.58 55.334 3 52.92.607 51.397 2.185c-12.433 13.01-27.695 23.04-44.624 29.329-2.048.745-1.155 4.023.91 3.26z" transform="translate(-662 -621) translate(664 620) translate(19.25 12.14)"/>
                            <path d="M51.362 4.145c4.297 10 10.007 19.344 16.958 27.75 1.4 1.735 3.798-.71 2.415-2.393C63.964 21.31 58.413 12.198 54.25 2.445c-.49-.792-1.526-1.06-2.345-.607-.79.486-1.059 1.5-.613 2.307h.07z" transform="translate(-662 -621) translate(664 620) translate(19.25 12.14)"/>
                            <path d="M59.097 43.36c4.41-3.47 8.663-6.938 12.653-10.754.644-.67.644-1.723 0-2.393-.676-.639-1.739-.639-2.415 0-3.827 3.573-7.834 6.96-12.022 10.163-.79.486-1.06 1.499-.613 2.307.49.793 1.526 1.06 2.345.607l.052.07zM52.167 50.73c-.665-4.492-5.057-8.567-9.782-7.197-5.145 1.474-6.038 8.672-2.52 12.14 2.041 2.094 5.282 2.484 7.77.937 1.313-.85.087-2.948-1.242-2.099-1.353.898-3.14.806-4.393-.225-1.385-1.214-2.046-3.047-1.75-4.856.146-1.56 1.169-2.903 2.642-3.47 1.452-.474 3.047-.2 4.253.73 1.45 1.19 2.403 2.87 2.677 4.717.18.646.853 1.027 1.505.85.635-.2 1.008-.85.858-1.492l-.018-.035z" transform="translate(-662 -621) translate(664 620) translate(19.25 12.14)"/>
                            <path d="M50.855 52.933c3.325.69 6.292 2.536 8.365 5.203.23.233.546.365.875.365.33 0 .645-.132.875-.365.462-.487.462-1.247 0-1.734-2.38-2.956-5.72-5.003-9.45-5.793-.425-.123-.884-.01-1.2.297-.317.307-.442.759-.328 1.183.115.423.452.753.88.861l-.017-.017zM46.008 55.118c-.654 2.176-.938 4.444-.84 6.712.043 1.167.19 2.328.437 3.47.21 1.057.49 2.826 1.943 2.722.668-.018 1.206-.551 1.224-1.214 0-.67-.548-1.214-1.224-1.214h-.14l.63.156h-.123l.455.434c-.17-.37-.289-.76-.35-1.162 0-.417-.158-.815-.228-1.214-.133-.879-.198-1.766-.192-2.654.007-1.762.266-3.514.77-5.203.165-.642-.219-1.296-.863-1.471-.645-.175-1.312.194-1.5.83v-.192zM45.78 28.426c-.242-.898-.336-1.83-.28-2.757.072-.624.3-1.22.665-1.735.806-1.036 2.078-1.608 3.395-1.526 1.338.105 2.562.79 3.343 1.873.85 1.272 1.106 2.847.7 4.319-.184.646.196 1.318.848 1.5.653.182 1.33-.195 1.514-.841.968-3.344-.538-6.906-3.623-8.568-1.465-.759-3.166-.939-4.76-.503-1.558.443-2.886 1.46-3.71 2.845-.91 1.89-1.072 4.05-.455 6.052.11.426.443.76.87.873.428.113.884-.01 1.194-.324.309-.314.423-.77.299-1.19v-.018z" transform="translate(-662 -621) translate(664 620) translate(19.25 12.14)"/>
                            <path d="M54.373 30.334c1.867.178 3.69.67 5.39 1.457 1.547.973 2.837 2.3 3.762 3.868.343.58 1.095.773 1.68.433s.78-1.085.438-1.665c-1.129-1.874-2.673-3.47-4.516-4.665-1.916-.931-3.984-1.518-6.107-1.735-.65-.157-1.31.216-1.505.85-.179.647.205 1.315.858 1.492v-.035zM16.275 59.732l1.75 3.295c.37.587 1.133.792 1.75.468.585-.37.79-1.121.473-1.734l-1.75-3.295c-.222-.431-.667-.704-1.155-.71-.488-.005-.938.258-1.17.683-.232.426-.206.944.067 1.345l.035-.052zM20.79 57.113c.423 1.358 1.133 2.611 2.082 3.677.246.244.58.381.928.381.347-.004.68-.14.927-.381.247-.244.385-.575.386-.92-.023-.34-.158-.663-.386-.919l-.227-.364.21.26c-.453-.58-.829-1.216-1.12-1.89l.14.312c-.123-.276-.228-.56-.315-.85-.103-.32-.313-.595-.595-.78-.31-.17-.674-.213-1.015-.122-.695.195-1.107.903-.927 1.596h-.088zM20.457 36.18l1.75 2.965c.172.297.455.515.788.607.343.094.71.044 1.015-.139.585-.37.79-1.122.473-1.734L22.75 34.86c-.374-.58-1.132-.783-1.75-.468-.578.376-.781 1.12-.473 1.734l-.07.052zM25.025 33.04c.4 1.01.918 1.97 1.54 2.862.18.289.46.504.787.607.344.086.708.036 1.015-.14.295-.171.509-.452.595-.78.102-.332.057-.69-.122-.988-.517-.737-.962-1.521-1.33-2.342l.14.313v-.226c-.04-.16-.118-.309-.227-.433-.098-.141-.23-.255-.385-.33-.3-.182-.66-.232-.998-.139-.333.092-.616.31-.787.607-.184.296-.235.654-.14.989h-.088z" transform="translate(-662 -621) translate(664 620) translate(19.25 12.14)"/>
                        </g>
                    </g>
                </g>
            </g>
        </g>
    </g>
</svg>
