<svg xmlns="http://www.w3.org/2000/svg" width="114" height="111" viewBox="0 0 114 111">
    <g fill="none" fill-rule="evenodd">
        <g>
            <path fill="#FFF" d="M0 0H1440V2804H0z" transform="translate(-225 -621)"/>
            <g>
                <path d="M0 111L112 111 112 0 0 0z" transform="translate(-225 -621) translate(227 620)"/>
                <g fill-rule="nonzero">
                    <g>
                        <g>
                            <path fill="#FFD9B2" d="M8.75 78.62l-8.453-.417s2.45-6.608 4.463-13.771c2.013-7.163 7.123-31.878 8.05-39.648.928-7.77 1.452-22.668 1.452-22.668S43.89.468 54.513.26C60.029.103 65.547.225 71.05.624l1.75.816c.681 7.014.915 14.064.7 21.107-.612 7.492-3.08 24.524-4.427 30.351-1.348 5.828-6.475 26.363-6.475 26.363l-7.823-.434v-7.163l-44.082.92-1.943 6.035z" transform="translate(-225 -621) translate(227 620) translate(7 13.875) translate(3.5 1.734)"/>
                            <path fill="#FFB727" d="M64.295 72.063c.105-.537 5.25-22.755 7.14-30.213 1.89-7.457 1.96-33.837 1.96-33.837L72.905 0l4.498.45s8.084 9.956 10.184 20.484c2.1 10.528 4.218 24.403 4.06 32.19-.157 7.787-3.36 25.443-3.36 25.443l-5.95-.815.77-6.33-14.174.676-4.638-.035z" transform="translate(-225 -621) translate(227 620) translate(7 13.875) translate(3.5 1.734)"/>
                        </g>
                        <g>
                            <path fill="#53565A" d="M15.085 5.1c.892 6.538-.473 13.475-1.26 19.962-.787 6.486-1.75 12.713-2.887 19.078C8.733 56.69 5.215 68.978.438 80.805c-.963 2.306 2.834 3.33 3.797 1.023 4.96-12.301 8.58-25.093 10.797-38.156 1.138-6.4 2.048-12.835 2.835-19.287.788-6.452 1.925-13.493 1.015-20.205-.35-2.463-4.147-1.422-3.797 1.04V5.1z" transform="translate(-225 -621) translate(227 620) translate(7 13.875)"/>
                            <path fill="#53565A" d="M17.727 5.845c18.908-1.71 37.916-2.07 56.876-1.075 2.537.138 2.52-3.764 0-3.903-18.96-.995-37.968-.635-56.875 1.075-2.503.243-2.52 4.146 0 3.903zM3.01 83.597c2.378-.315 4.777-.448 7.175-.399.748.07 1.47-.286 1.867-.919.395-.632.395-1.432 0-2.065-.396-.632-1.12-.988-1.867-.918-2.398-.05-4.797.084-7.175.399-.52.019-1.017.222-1.4.572-.362.367-.568.857-.578 1.37.009.518.215 1.014.578 1.388.365.377.873.585 1.4.572z" transform="translate(-225 -621) translate(227 620) translate(7 13.875)"/>
                            <path fill="#53565A" d="M13.16 82.053c.925-2.094 1.663-4.264 2.205-6.486.261-.695.105-1.476-.404-2.019-.509-.543-1.283-.755-2-.548-.719.207-1.258.797-1.393 1.526-.478 1.99-1.116 3.939-1.908 5.828l.192-.469-.087.208c-.245.458-.313.988-.193 1.492.133.498.46.923.91 1.18.459.252.998.32 1.506.19.499-.128.923-.454 1.172-.902zM73.64 3c3.15 26.12-3.133 52.032-10.168 76.972-.29 1.035.322 2.106 1.366 2.393 1.043.288 2.125-.318 2.415-1.352 7.14-25.288 13.527-51.58 10.325-78.047-.298-2.463-4.236-2.48-3.938 0V3z" transform="translate(-225 -621) translate(227 620) translate(7 13.875)"/>
                            <path fill="#53565A" d="M65.415 78.983c-2.611.327-5.247.42-7.875.278-1.082 0-1.96.87-1.96 1.942-.014.53.185 1.042.552 1.426.368.384.874.607 1.408.621 2.628.142 5.264.049 7.875-.278.522-.011 1.021-.215 1.4-.572.362-.367.568-.857.578-1.37 0-.954-.876-2.081-1.978-1.96v-.087z" transform="translate(-225 -621) translate(227 620) translate(7 13.875)"/>
                            <path fill="#53565A" d="M59.185 81.186c.654-1.876 1.094-3.82 1.313-5.793-.002-.52-.209-1.018-.578-1.387-.379-.357-.878-.561-1.4-.573-.52 0-1.017.206-1.383.573l-.315.399c-.176.3-.267.641-.262.988v.486-.52c-.223 1.631-.616 3.235-1.172 4.786-.133.511-.057 1.053.21 1.51.26.434.68.751 1.172.884 1.041.268 2.11-.33 2.415-1.353z" transform="translate(-225 -621) translate(227 620) translate(7 13.875)"/>
                            <path fill="#53565A" d="M14 76.434c7.171-.492 14.366-.533 21.542-.121l22.208.607c1.016-.095 1.792-.94 1.792-1.952 0-1.01-.776-1.856-1.792-1.95l-22.172-.59c-7.17-.417-14.36-.382-21.526.104-2.484.26-2.52 4.162 0 3.902H14zM75.635 4.44H79.8h-.525.175l-.472-.19-.228-.157-.297-.381-.193-.469v-1.04l.49-.85c-.36.368-.567.857-.578 1.37.002.52.209 1.018.578 1.387.365.367.863.573 1.382.573.527.01 1.035-.197 1.4-.573.24-.274.425-.592.543-.936.124-.444.087-.916-.105-1.336-.274-.622-.812-1.092-1.47-1.283-.572-.142-1.162-.195-1.75-.156L75.705.312c-.523.008-1.023.213-1.4.573-.36.375-.566.87-.578 1.387.028 1.068.9 1.924 1.978 1.943l-.07.225z" transform="translate(-225 -621) translate(227 620) translate(7 13.875)"/>
                            <path fill="#53565A" d="M79.047 3.937c7.77 10.111 10.64 22.72 12.093 35.104 1.61 13.736 2.328 27.94-1.89 41.295-.752 2.394 3.045 3.469 3.797 1.04C97.44 67.503 96.74 52.622 94.99 38.33c-1.557-12.8-4.497-25.895-12.547-36.422-1.505-1.977-4.936 0-3.395 1.96v.069z" transform="translate(-225 -621) translate(227 620) translate(7 13.875)"/>
                            <path fill="#53565A" d="M91 79.07h-5.25c-1.016.095-1.792.94-1.792 1.951 0 1.011.776 1.856 1.792 1.951H91c1.082 0 1.96-.87 1.96-1.942-.01-1.072-.879-1.941-1.96-1.96z" transform="translate(-225 -621) translate(227 620) translate(7 13.875)"/>
                            <path fill="#53565A" d="M86.957 80.735c.71-1.977 1.076-4.059 1.086-6.157.07-.74-.289-1.458-.927-1.85-.639-.392-1.446-.392-2.084 0-.639.392-.998 1.11-.927 1.85.016.742-.019 1.483-.105 2.22v-.52c-.168 1.182-.455 2.344-.858 3.469-.14.502-.07 1.04.193 1.491.263.443.69.766 1.19.902.507.14 1.05.07 1.505-.19.428-.282.748-.697.91-1.18l.017-.035z" transform="translate(-225 -621) translate(227 620) translate(7 13.875)"/>
                            <path fill="#53565A" d="M85.33 72.167l-16.153-.225c-.998.003-1.835.75-1.942 1.734-.11.962.485 1.865 1.418 2.15l.42.174c1.008.185 1.991-.425 2.265-1.405.273-.98-.255-2.003-1.215-2.358l-.42-.174-.526 3.833 16.153.226c1.016-.095 1.792-.94 1.792-1.951 0-1.012-.776-1.857-1.792-1.952v-.052z" transform="translate(-225 -621) translate(227 620) translate(7 13.875)"/>
                            <path fill="#4C4C4C" d="M32.392 20.136c-2.45.93-4.27 3.013-4.847 5.55-.286 1.256-.244 2.563.122 3.798.237.863.754 1.625 1.47 2.168.622.395 1.33.633 2.066.694 2.97.537 6.001-.557 7.927-2.862 1.745-2.23 1.809-5.331.157-7.63-.859-1.105-2.11-1.843-3.5-2.065-1.582-.295-3.215.146-4.427 1.197-.679.676-.679 1.769 0 2.445.683.673 1.785.673 2.468 0 .297-.242-.333.191 0 0l.28-.156c.245-.156-.088 0-.123 0s.245-.086.297-.104h.316c.227 0 0 .087-.14 0 .232.035.467.035.7 0 .245 0-.438 0 0 0h.629c.175.07.14.07-.105 0 0 0 .403.208.49.26l.263.191c-.193-.173-.227-.19-.088 0l.123.104.193.208c.262.26-.21-.33 0 0s.315.4.297.52l-.21-.173c.01.075.01.15 0 .226.04.095.069.193.087.295.015.097.015.197 0 .294v-.104.868c0 .208 0-.382 0 0 .007.08.007.162 0 .242 0 .226-.122.434-.192.66-.07.225.192-.382 0 0l-.245.433-.14.208v.104c-.122.156-.105.139 0 0 0 .156-.315.347-.42.451l-.315.26h-.087l-.7.382c-.386.208.245 0 0 0l-.316.104-.664.19c-.128.017-.258.017-.386 0 .403 0 0 0 0 0-.273.018-.548.018-.822 0-.226.035-.456.035-.682 0 .402.14 0 0 0 0h-.333l-.315-.086c-.402 0 .28.19 0 0 .28.19.14 0 0 0 .42.45-.28-.434 0 0-.077-.185-.135-.376-.175-.572-.008-.11-.008-.22 0-.33 0-.381 0 .312 0 0v-.624c-.008-.098-.008-.197 0-.295v-.174.122s.332-1.266.367-1.353c.123-.382-.192.347 0 0 .066-.144.142-.283.228-.416.112-.203.235-.4.367-.59.193-.277 0 0 0 0s.263-.295.316-.347c.052-.052.42-.485.507-.468l-.175.121.192-.121.298-.19.297-.174.21-.104c-.227.104-.262.121-.087 0 .448-.122.829-.415 1.059-.815.23-.4.29-.875.166-1.319-.123-.444-.419-.821-.822-1.049-.404-.228-.883-.287-1.33-.165l-.245.191zM51.8 18.61c-5.367 8.95-10.838 17.87-16.415 26.761-1.19 1.908 1.837 3.642 3.028 1.735 5.506-8.904 10.978-17.824 16.415-26.762.434-.823.137-1.84-.675-2.305-.812-.465-1.85-.214-2.353.57zM54.617 35.641c-2.478.81-4.554 2.52-5.81 4.787-.854 1.4-1.113 3.078-.717 4.666.457 1.298 1.413 2.364 2.66 2.966 2.769 1.19 5.984.668 8.225-1.336 2.103-1.736 2.991-4.528 2.275-7.146-.398-1.439-1.366-2.658-2.684-3.38-1.318-.721-2.875-.885-4.316-.453-.603.165-1.072.635-1.23 1.235-.159.6.018 1.238.463 1.674.445.436 1.091.603 1.695.439.2-.105.42-.17.647-.191 0 0-.42 0 0 0h.525c-.297-.156-.157 0 0 0h.332s.386.173.158 0l.157.087.228.139c.28.156 0 0 0 0l.245.225.245.243s-.21-.295 0 0l.157.243s.228.485.088.121c.075.199.139.402.193.607v.295c0 .26 0-.399 0 0v.763c0 .45 0-.208 0 0s0 .295-.088.434c-.087.138-.245.71 0 .346 0 .174-.175.347-.28.52-.054.105-.118.204-.192.296 0 0-.21.294 0 .121l-.14.173-.316.313-.437.381c.297-.243-.228.156-.315.208-.185.118-.378.223-.578.313l-.262.138c.367-.173-.087 0-.175 0-.24.086-.486.155-.735.208l-.42.087h-.823c-.262 0 .228 0 0 0l-.77-.07c-.105 0-.367-.173 0 0l-.262-.138-.227-.139c-.386-.208.14.156 0 0-.16-.141-.313-.292-.456-.45 0 0 .193.294 0 0-.07-.118-.135-.24-.192-.365.175.33 0-.104 0-.243v-.121c-.009-.139-.009-.278 0-.416 0 0 0 .294 0 0 .008-.11.008-.22 0-.33l.157-.399c0-.121 0-.104 0 0v-.156l.403-.694c.054-.104.118-.203.192-.295 0 0 .263-.364.123-.19-.14.173.14-.156.14-.156l.297-.33.526-.503.227-.19c.367-.313-.28.19.123 0l.612-.4.648-.346s.437-.174.192-.087.297-.104.333-.104c.603-.164 1.072-.635 1.23-1.235.158-.6-.018-1.238-.464-1.674-.445-.435-1.09-.603-1.694-.439l.087-.052z" transform="translate(-225 -621) translate(227 620) translate(7 13.875)"/>
                        </g>
                    </g>
                </g>
            </g>
        </g>
    </g>
</svg>
