<svg xmlns="http://www.w3.org/2000/svg" width="114" height="111" viewBox="0 0 114 111">
    <g fill="none" fill-rule="evenodd">
        <g>
            <path fill="#FFF" d="M0 0H1440V2804H0z" transform="translate(-1101 -1697)"/>
            <g>
                <path d="M0 112L112 112 112 0 0 0z" transform="translate(-1101 -1697) translate(1102 1695)"/>
                <g fill-rule="nonzero">
                    <g>
                        <g>
                            <path fill="#FFF" d="M20.352 81.007c-.472 0 15.103-45.675 15.103-45.675s24.867-2.1 46.953 1.75c0 0-1.26 26.653-6.475 43.96 0-.035-40.67 2.398-55.58-.035z" transform="translate(-1101 -1697) translate(1102 1695) translate(12.25 12.25) translate(3.5 3.5)"/>
                            <path fill="#D9D4D1" d="M4.06 38.623S1.663 27.598 1.278 23.818C1.175 18.44 2.345 13.116 4.69 8.277 6.86 4.514 13.44.752 20.702.175c6.746-.567 13.516.76 19.548 3.833 4.742 2.712 5.565 10.044 5.6 16.52.035 6.475-7.508 21-7.508 21l-4.147-3.343s1.05-7.473 1.102-11.673c.053-4.2-.857-8.557-5.372-8.977-4.616-.425-9.261-.425-13.878 0-2.607.42-7.542 1.348-7.542 7.28.105 4.266.603 8.513 1.487 12.687l-5.932 1.12z" transform="translate(-1101 -1697) translate(1102 1695) translate(12.25 12.25) translate(3.5 3.5)"/>
                            <path fill="#A3EA8F" d="M7.473 38.623l2.38-1.75c-.512-1.747-.795-3.553-.84-5.373-.473-4.9-1.016-4.218.84-8.242 1.854-4.025 2.397-5.653 6.177-5.758 3.78-.105 7.402.367 11.41.473 4.008.105 6.23 0 7 2.957.619 3.465.906 6.98.858 10.5.174 3.955 0 8.557 0 8.557V42c-1.288.386-2.648.47-3.973.245-1.19-.525-2.31-4.83-2.31-4.83s.332-2.047.77-4.795c.523-1.798.805-3.658.84-5.53.029-1.428-.456-2.819-1.365-3.92 0 0-2.24-2.45-3.868-2.45h-5.25c-1.19.212-2.36.522-3.5.928-1.065.604-2.037 1.358-2.887 2.24.514 1.2.782 2.491.787 3.797-.102 1.433-.102 2.872 0 4.305 0 0 .683 3.325 1.138 4.865.455 1.54-.49 1.4-.665 3.063-.175 1.662-2.958 2.502-2.958 2.502l-2.625.315-1.12-2.222-.84-1.89z" transform="translate(-1101 -1697) translate(1102 1695) translate(12.25 12.25) translate(3.5 3.5)"/>
                            <path fill="#FFAB59" d="M65.94 81.498s5.25-16.503 5.95-22.19c.7-5.688 2.047-18.813 2.047-18.813v-5.6l7.403 1.855-5.407 44.257-9.993.49zM42.63 63.403c1.925 0 3.832.332 5.758.367 2.126.013 4.248-.187 6.334-.595 2.793-.774 4.43-3.664 3.658-6.457-.814-2.762-3.667-4.386-6.458-3.676-3.114.543-6.177-.122-9.292-.14-6.773 0-6.773 10.5 0 10.5z" transform="translate(-1101 -1697) translate(1102 1695) translate(12.25 12.25) translate(3.5 3.5)"/>
                        </g>
                        <g fill="#4C4C4C">
                            <path d="M33.74 46.2c-4.27 12.758-8.593 25.55-12.408 38.395-.256.933.293 1.896 1.226 2.153.932.256 1.896-.293 2.152-1.226 3.815-12.897 8.137-25.637 12.407-38.395.718-2.135-2.66-3.044-3.377-.927z" transform="translate(-1101 -1697) translate(1102 1695) translate(12.25 12.25)"/>
                            <path d="M23.03 86.8c18.516 1.056 37.083.799 55.563-.77 2.222-.21 2.257-3.71 0-3.5-18.48 1.569-37.047 1.826-55.563.77-2.258-.105-2.258 3.395 0 3.5zM45.307 40.25c13.284-.283 26.571.301 39.778 1.75 2.223.263 2.205-3.237 0-3.5-13.207-1.449-26.494-2.033-39.777-1.75-.967 0-1.75.784-1.75 1.75s.783 1.75 1.75 1.75z" transform="translate(-1101 -1697) translate(1102 1695) translate(12.25 12.25)"/>
                            <path d="M83.335 40.25c-.385 7.35-.787 14.718-1.855 22.015-1.106 7.256-2.601 14.447-4.48 21.543-.256.932.292 1.896 1.225 2.152.933.256 1.896-.292 2.153-1.225 1.961-7.263 3.515-14.63 4.654-22.068 1.05-7.402 1.505-14.875 1.89-22.347.106-2.258-3.394-2.24-3.5 0l-.087-.07zM57.855 38.71l1.75-8.137c.123-.448.064-.927-.166-1.33-.23-.404-.61-.7-1.059-.823-.448-.123-.926-.064-1.33.166s-.7.61-.822 1.059l-1.75 8.137c-.124.448-.064.927.166 1.33.23.404.61.7 1.059.823.447.123.926.064 1.33-.166.403-.23.7-.61.822-1.059z" transform="translate(-1101 -1697) translate(1102 1695) translate(12.25 12.25)"/>
                            <path d="M57.995 31.5c3.655-.562 7.385-.39 10.973.508.447.123.926.063 1.33-.167.403-.23.7-.61.822-1.059.265-.901-.23-1.852-1.12-2.152-3.921-.999-8-1.213-12.005-.63-.966 0-1.75.784-1.75 1.75s.784 1.75 1.75 1.75z" transform="translate(-1101 -1697) translate(1102 1695) translate(12.25 12.25)"/>
                            <path d="M67.953 30.555c.017.332.017.665 0 .997v.456c0 .192 0 .174 0 0v.262c-.106.612-.263 1.225-.42 1.75-.422 1.346-.715 2.729-.876 4.13 0 .966.784 1.75 1.75 1.75.967 0 1.75-.784 1.75-1.75v-.192c-.016-.152-.016-.304 0-.456 0-.332.14-.665.21-.997.07-.333.333-1.208.508-1.75.408-1.337.591-2.733.543-4.13 0-.966-.784-1.75-1.75-1.75-.967 0-1.75.784-1.75 1.75l.034-.07zM76.125 40.722c-.118 6.173-.792 12.323-2.013 18.375-.332 1.663 2.206 2.363 2.538.7 1.276-6.281 1.979-12.666 2.1-19.075 0-.724-.588-1.312-1.313-1.312-.724 0-1.312.588-1.312 1.313zM72.853 67.603c-.887 5.187-2.055 10.322-3.5 15.382-.194.7.218 1.425.918 1.619.701.193 1.426-.218 1.619-.919 1.445-5.066 2.613-10.207 3.5-15.4.151-.695-.25-1.392-.927-1.61-.337-.09-.696-.044-.998.13-.302.174-.522.46-.612.797zM9.293 42.385C5.863 31.5 2.398 12.25 16.082 7c6.456-2.187 13.425-2.364 19.985-.508 3.097.806 6.58 1.873 8.417 4.708 1.62 2.921 2.453 6.214 2.415 9.555.073 7.622-1.968 15.116-5.898 21.648-.434.83-.137 1.856.675 2.326s1.85.215 2.353-.576c3.956-6.655 6.154-14.207 6.387-21.945.105-3.735-.556-7.451-1.942-10.92-1.45-3.274-4.185-5.806-7.56-7C28.385-.666 7.98.297 3.85 15.89c-2.328 8.75-.595 18.865 2.065 27.335.683 2.135 4.06 1.225 3.378-.945v.105z" transform="translate(-1101 -1697) translate(1102 1695) translate(12.25 12.25)"/>
                            <path d="M6.282 44.345c1.544 2.457 4.316 3.863 7.21 3.657 3.85-.14 7.123-2.66 10.956-2.817 3.832-.157 6.807 2.52 10.5 2.922 3.345.277 6.63-1.016 8.89-3.5 1.54-1.645-.928-4.112-2.486-2.484-1.913 2.216-4.981 3.047-7.752 2.1-2.958-1.05-5.373-2.538-8.628-2.573-3.255-.035-5.932 1.33-8.925 2.275-2.345.753-5.337 1.05-6.825-1.365-1.172-1.907-4.2-.157-3.01 1.75l.07.035z" transform="translate(-1101 -1697) translate(1102 1695) translate(12.25 12.25)"/>
                            <path d="M8.242 44.153l4.008-.91c.653-.118 1.182-.595 1.368-1.232.187-.636-.003-1.323-.49-1.774-.486-.45-1.185-.588-1.806-.355l-4.077.893c-.933.256-1.481 1.22-1.225 2.153.256.932 1.22 1.48 2.152 1.225h.07zM42 42.472c-.98-.734-1.995-1.417-3.045-2.047-.405-.243-.89-.313-1.347-.192-.435.135-.807.42-1.05.805-.238.407-.301.893-.175 1.347.12.442.41.819.804 1.05 1.056.635 2.078 1.324 3.063 2.065.197.12.418.191.648.21.229.062.47.062.7 0 .441-.12.818-.41 1.05-.805.237-.407.3-.893.174-1.348l-.175-.42c-.152-.26-.369-.477-.63-.63L42 42.473z" transform="translate(-1101 -1697) translate(1102 1695) translate(12.25 12.25)"/>
                            <path d="M14.49 40.425c-.545-2.692-.855-5.427-.928-8.172-.144-1.986.057-3.981.596-5.898 1.557-4.76 7-3.938 10.955-3.902 2.37-.13 4.748-.047 7.105.245 1.974.32 3.563 1.798 4.024 3.744.492 1.931.664 3.93.508 5.916-.122 2.7-.49 5.382-1.102 8.015-.49 2.187 2.887 3.132 3.377.927 1.54-6.703 3.64-20.107-5.862-21.98-2.318-.334-4.661-.452-7-.35-2.332-.13-4.669-.13-7 0-4.075.177-7.539 3.034-8.488 7-1.313 4.883-.49 10.5.507 15.365.438 2.205 3.816 1.277 3.36-.928l-.052.018z" transform="translate(-1101 -1697) translate(1102 1695) translate(12.25 12.25)"/>
                            <path d="M9.223 42.42c.668 5.99 2.684 11.752 5.897 16.852 1.19 1.908 4.217.158 3.01-1.75-2.918-4.555-4.767-9.712-5.407-15.084 0-.967-.784-1.75-1.75-1.75-.967 0-1.75.783-1.75 1.75v-.018zM37.117 42.578c.351 4.488-.714 8.974-3.044 12.827-1.173 1.925 1.855 3.692 3.027 1.75 2.642-4.388 3.864-9.486 3.5-14.595 0-.966-.784-1.75-1.75-1.75s-1.75.784-1.75 1.75l.017.017z" transform="translate(-1101 -1697) translate(1102 1695) translate(12.25 12.25)"/>
                            <path d="M14.735 56.752c.283-.318.593-.61.928-.875l-.35.28c.475-.362.992-.668 1.54-.91l-.42.193c.127-.068.262-.12.402-.157.434-.136.806-.422 1.05-.806.235-.4.3-.88.183-1.329-.119-.45-.41-.834-.813-1.068-.407-.237-.893-.3-1.347-.175-1.397.462-2.655 1.268-3.658 2.345-.323.326-.506.766-.508 1.225-.002.465.18.912.508 1.242.33.328.777.51 1.242.508.46-.002.9-.184 1.225-.508l.018.035zM18.655 46.568c3.045-3.063 2.1-7.298 1.4-11.096-.399-2.028-.667-4.08-.805-6.142-.13-.644-.075-1.31.157-1.925.333-.49 1.103-.508 1.645-.525 1.96 0 3.956.105 5.916.175 1.312 0 3.167 0 4.095 1.085.746 1.168.908 2.616.437 3.92-.678 1.812-1.262 3.658-1.75 5.53-.39 2.06-.22 4.187.49 6.16.683 1.75 2.03 4.392 4.375 3.64 2.345-.752 1.225-4.06-.945-3.377l.875.227c-.473-.21-.823-1.138-1.032-1.75-.315-.84-.487-1.728-.508-2.625.105-1.907.568-3.777 1.365-5.513 1.172-3.29 1.418-7.524-1.942-9.642-1.619-.84-3.428-1.244-5.25-1.172-1.995 0-3.99-.228-5.986-.193-1.83-.12-3.6.69-4.707 2.152-.83 1.802-1.032 3.828-.577 5.758.227 2.398.665 4.725 1.102 7 .35 1.925.612 4.235-.875 5.758-1.488 1.522.892 4.077 2.467 2.467l.053.088z" transform="translate(-1101 -1697) translate(1102 1695) translate(12.25 12.25)"/>
                            <path d="M17.78 26.793l1.26 15.505c0 .966.784 1.75 1.75 1.75s1.75-.784 1.75-1.75l-1.26-15.506c0-.966-.784-1.75-1.75-1.75s-1.75.784-1.75 1.75z" transform="translate(-1101 -1697) translate(1102 1695) translate(12.25 12.25)"/>
                            <path d="M19.74 26.652c-.192 3.185-.245 6.37-.14 9.573 0 1.593.122 3.185.245 4.777-.007.748.075 1.495.245 2.223.297 1.02 1.357 1.611 2.38 1.33.448-.123.829-.419 1.059-.822.23-.404.29-.883.166-1.33-.123-.449-.419-.83-.822-1.06-.404-.229-.883-.289-1.33-.166h-.123l1.75.456-.123-.123.456.77c-.122-.575-.175-1.162-.158-1.75 0-.648-.087-1.278-.122-1.925 0-1.313-.105-2.642-.123-3.99 0-2.66 0-5.25.175-7.963 0-.966-.784-1.75-1.75-1.75s-1.75.784-1.75 1.75h-.035z" transform="translate(-1101 -1697) translate(1102 1695) translate(12.25 12.25)"/>
                            <path d="M21.315 27.212c-.335 5.162-.4 10.337-.193 15.506 0 1.89 2.976 2.467 3.5.472l.316-1.4c.256-.933-.293-1.896-1.226-2.152-.932-.257-1.896.292-2.152 1.224l-.315 1.383 3.5.473c-.207-5.169-.143-10.344.192-15.506 0-.966-.783-1.75-1.75-1.75-.966 0-1.75.784-1.75 1.75h-.122z" transform="translate(-1101 -1697) translate(1102 1695) translate(12.25 12.25)"/>
                            <path d="M23.152 27.352c-.338 5.029-.63 10.051-.875 15.068-.013.8.518 1.508 1.29 1.718.772.211 1.589-.13 1.983-.825l.227-.42c.435-.831.138-1.857-.674-2.327s-1.85-.215-2.353.576l-.227.403 3.255.875c.245-5.028.536-10.05.875-15.068 0-.966-.784-1.75-1.75-1.75-.967 0-1.75.784-1.75 1.75z" transform="translate(-1101 -1697) translate(1102 1695) translate(12.25 12.25)"/>
                            <path d="M25.288 27.773c-.578 4.9-1.015 9.8-1.278 14.717-.081.625.177 1.246.678 1.63.5.382 1.168.469 1.75.227.582-.242.99-.777 1.072-1.402l.49-2.013c.525-2.187-2.852-3.132-3.378-.927L24.08 42l3.5.472c.263-4.917.7-9.817 1.278-14.717 0-.966-.784-1.75-1.75-1.75-.967 0-1.75.784-1.75 1.75l-.07.018z" transform="translate(-1101 -1697) translate(1102 1695) translate(12.25 12.25)"/>
                            <path d="M27.37 27.773l-1.75 15.05c-.126.966.556 1.851 1.522 1.977.967.126 1.852-.556 1.978-1.522l.367-1.085c.166-.604-.003-1.25-.442-1.695-.44-.445-1.084-.622-1.689-.464-.605.159-1.08.628-1.246 1.231l-.35 1.085 3.5.472 1.75-15.05c0-.966-.784-1.75-1.75-1.75s-1.75.784-1.75 1.75h-.14z" transform="translate(-1101 -1697) translate(1102 1695) translate(12.25 12.25)"/>
                            <path d="M28.613 28.665c.149 2.528-.081 5.065-.683 7.525-.577 2.712-.63 5.51-.157 8.242.125.967 1.01 1.649 1.977 1.523.966-.126 1.648-1.011 1.523-1.977-.103-2.603.032-5.21.402-7.788.187-1.295.432-2.572.735-3.832.298-1.26 1.173-2.923.56-4.148-.313-.54-.89-.872-1.514-.872s-1.2.332-1.514.872c-.219.31-.318.69-.28 1.067 0 .967.784 1.75 1.75 1.75.967 0 1.75-.783 1.75-1.75v-.105l-.245.893h-3.045l-.174-1.348c-1.49 4.963-2.17 10.134-2.013 15.313l3.5-.473c-.365-2.49-.246-5.027.35-7.472.585-2.724.744-5.522.473-8.295-.123-.448-.419-.829-.823-1.059-.404-.23-.882-.29-1.33-.166-.926.263-1.466 1.225-1.207 2.152l-.035-.052zM48.51 29.855h.193l-.403-.105.367.227-.35-.28c.152.123.287.264.403.42l-.262-.367c.13.18.242.374.332.578l-.175-.42c.083.238.142.484.175.734v-.454c.035.302.035.607 0 .91v-.456c-.056.401-.155.794-.297 1.173l.174-.42c-.083.198-.189.386-.315.56l.263-.35c-.093.128-.205.24-.333.332l.35-.262-.314.175.42-.175h-.368.473-.298.472-.28l.42.175c-.07-.021-.136-.057-.192-.105-.407-.237-.893-.3-1.348-.175-.437.13-.81.417-1.05.805-.237.407-.3.893-.175 1.347.148.429.43.797.805 1.05 1.147.649 2.58.486 3.553-.402.708-.69 1.17-1.594 1.313-2.572.234-1.139.099-2.322-.386-3.378-.48-.93-1.311-1.63-2.31-1.943-.603-.165-1.249.004-1.694.443-.445.44-.622 1.084-.464 1.689.159.605.628 1.08 1.231 1.246h.07zM2.888 27.265c-.708.495-1.304 1.133-1.75 1.872-.453.748-.672 1.613-.63 2.485.06.954.45 1.857 1.102 2.556.667.709 1.599 1.108 2.572 1.102.967 0 1.75-.784 1.75-1.75s-.783-1.75-1.75-1.75H3.85h.472c-.132-.016-.262-.052-.385-.105l.42.175c-.164-.064-.317-.153-.455-.263l.368.28c-.14-.108-.27-.231-.385-.367l.28.35c-.126-.158-.226-.336-.297-.525l.175.42c-.086-.182-.14-.377-.158-.578v.455c-.017-.18-.017-.362 0-.542v.455c.033-.233.092-.462.175-.683l-.175.42c.114-.268.26-.52.438-.752l-.28.35c.213-.275.46-.522.734-.735l-.35.28.228-.175c.388-.24.675-.613.805-1.05.126-.454.062-.94-.175-1.348-.234-.402-.618-.694-1.068-.812-.45-.118-.928-.053-1.33.182v.053z" transform="translate(-1101 -1697) translate(1102 1695) translate(12.25 12.25)"/>
                        </g>
                    </g>
                </g>
            </g>
        </g>
    </g>
</svg>
