<svg xmlns="http://www.w3.org/2000/svg" width="114" height="111" viewBox="0 0 114 111">
    <g fill="none" fill-rule="evenodd">
        <g>
            <path fill="#FFF" d="M0 0H1440V2804H0z" transform="translate(-663 -1697)"/>
            <g>
                <path d="M0 112L112 112 112 0 0 0z" transform="translate(-663 -1697) translate(664 1696)"/>
                <g fill-rule="nonzero">
                    <g>
                        <g>
                            <path fill="#FFAB59" d="M52.867 11.305L56.053 1.435 60.865 10.867 70.77 8.575 64.907 16.24 70.175 25.323 57.347 21 49.35 28.945 49.84 18.55 42.07 16.24z" transform="translate(-663 -1697) translate(664 1696) translate(3.5 12.25) translate(1.75 1.75)"/>
                            <path fill="#EBE8E5" d="M0.087 61.39L16.957 40.477 92.873 40.547 101.01 61.39 87.605 61.39 83.965 87.097 6.912 87.097 11.69 62.65z" transform="translate(-663 -1697) translate(664 1696) translate(3.5 12.25) translate(1.75 1.75)"/>
                            <path fill="#F48797" d="M87.605 61.39L92.873 40.547 101.01 61.39z" transform="translate(-663 -1697) translate(664 1696) translate(3.5 12.25) translate(1.75 1.75)"/>
                        </g>
                        <g fill="#53565A">
                            <path d="M4.918 88.918H90.09c1.016-.096 1.792-.95 1.792-1.97s-.776-1.872-1.792-1.968H4.918c-1.016.096-1.792.949-1.792 1.969s.776 1.873 1.792 1.969z" transform="translate(-663 -1697) translate(664 1696) translate(3.5 12.25)"/>
                            <path d="M11.76 87.097l4.778-21.56c.56-2.467-3.238-3.5-3.798-1.05l-4.777 21.56c-.56 2.468 3.237 3.5 3.797 1.05zM19.898 43.4H95.27c1.016-.096 1.792-.949 1.792-1.969s-.776-1.873-1.792-1.968H19.897c-1.015.095-1.791.948-1.791 1.968s.776 1.873 1.791 1.969z" transform="translate(-663 -1697) translate(664 1696) translate(3.5 12.25)"/>
                            <path d="M93.293 41.3L84 86.433c-.507 2.467 3.272 3.5 3.797 1.032L97.09 42.35c.507-2.468-3.29-3.5-3.797-1.05zM57.12 1.873c-1.31 3.2-2.381 6.493-3.203 9.852-.26.7-.104 1.489.404 2.037.51.547 1.283.762 2.001.553.718-.209 1.257-.805 1.393-1.54.821-3.36 1.892-6.652 3.202-9.853.262-.7.105-1.488-.403-2.036-.51-.548-1.283-.762-2.001-.553-.718.208-1.257.804-1.393 1.54z" transform="translate(-663 -1697) translate(664 1696) translate(3.5 12.25)"/>
                            <path d="M57.435 3.203c.857 1.522 1.75 3.062 2.45 4.62.385.77.753 1.54 1.12 2.31l.56 1.155.263.595.157.332c.14.367.123.21-.087-.473l.262-.997v.088l1.75-.98 1.75.98.263.997-1.453 1.89c.96-.358 1.488-1.392 1.215-2.38-.273-.988-1.257-1.604-2.265-1.418-.848.248-1.432 1.025-1.435 1.908.005.59.263 1.15.708 1.538.444.388 1.034.567 1.62.492.604-.102 1.133-.462 1.45-.987.316-.525.387-1.161.194-1.743-.246-.68-.545-1.342-.892-1.978l-.735-1.574c-1.032-2.118-2.117-4.2-3.273-6.248-.353-.606-1.003-.978-1.705-.976-.701.003-1.348.38-1.697.989-.349.61-.346 1.358.008 1.965l-.228-.105z" transform="translate(-663 -1697) translate(664 1696) translate(3.5 12.25)"/>
                            <path d="M65.153 14c2.987-.991 6.025-1.827 9.1-2.502 1.031-.306 1.635-1.374 1.365-2.415-.306-1.033-1.37-1.643-2.415-1.383-3.07.674-6.102 1.509-9.083 2.503-1.049.285-1.668 1.366-1.383 2.415.286 1.048 1.367 1.667 2.416 1.382zM54.25 11.043c-3.646 1.068-7.233 2.33-10.745 3.78-.75.218-1.305.854-1.418 1.627-.11.784.263 1.558.945 1.96 3.039 1.599 6.341 2.636 9.748 3.063.523 0 1.024-.21 1.392-.58.368-.372.573-.875.568-1.398-.009-1.078-.865-1.958-1.943-1.995H52.5l-.56-.105-1.05-.21c-.718-.157-1.418-.35-2.135-.577-.671-.212-1.331-.457-1.977-.736l-.193-.122-.525-.227-1.015-.525-.473 3.587c3.508-1.457 7.095-2.713 10.745-3.763 1.035-.312 1.637-1.386 1.365-2.432-.304-1.04-1.389-1.64-2.432-1.348z" transform="translate(-663 -1697) translate(664 1696) translate(3.5 12.25)"/>
                            <path d="M71.75 9.012c-.09.292-.195.578-.315.858l.21-.472c-.252.622-.581 1.21-.98 1.75l.297-.386c-.402.51-.866.97-1.382 1.365l.403-.315c-1.272.787-2.447 1.721-3.5 2.783-.36.379-.566.878-.578 1.4.012.79.494 1.497 1.225 1.798.73.3 1.57.137 2.135-.415.327-.396.697-.754 1.103-1.068l-.385.315c1.203-.785 2.344-1.663 3.412-2.625 1.038-1.121 1.799-2.47 2.223-3.938.187-.69-.008-1.429-.513-1.937-.504-.508-1.241-.708-1.933-.525-.693.183-1.234.722-1.422 1.412zM51.502 21l-1.172 8.977c-.03.718.34 1.392.962 1.75.62.35 1.376.35 1.995 0 1.714-1.074 3.225-2.442 4.463-4.042.595-.717 1.155-1.452 1.75-2.17l.892-1.102.455-.526.245-.262c.596-.665-.28.543-1.294.157l-1.19-.91c.56.924 1.75 1.24 2.695.718.925-.56 1.235-1.755.7-2.695-.332-.548-.886-.925-1.517-1.033-.632-.107-1.28.065-1.773.473-.42.374-.807.784-1.156 1.225-.682.823-1.33 1.663-1.995 2.503-.64.812-1.323 1.589-2.047 2.327-.35.367-.735.7-1.12 1.032-.385.333.28-.21 0 0l-.333.228-.717.455 2.975 1.75L55.44 21c-.004-.519-.211-1.015-.578-1.383-.367-.37-.868-.579-1.39-.579-.523 0-1.024.209-1.392.58-.345.38-.55.869-.578 1.382z" transform="translate(-663 -1697) translate(664 1696) translate(3.5 12.25)"/>
                            <path d="M66.168 18.2c1.82 2.975 3.57 5.997 5.25 9.065l2.222-2.887c-3.966-1.09-7.808-2.592-11.462-4.48-.61-.44-1.414-.496-2.079-.146-.664.35-1.073 1.046-1.055 1.796.018.75.459 1.426 1.139 1.745 3.956 2.05 8.114 3.687 12.407 4.882.768.193 1.578-.086 2.064-.712.485-.626.554-1.48.176-2.175-1.75-3.08-3.5-6.108-5.25-9.083-.597-.828-1.726-1.066-2.606-.548-.88.517-1.222 1.619-.789 2.543h-.017zM17.692 40.705C12.221 48.055 6.516 55.225.578 62.213c-.736.781-.736 2 0 2.782.774.754 2.008.754 2.782 0C9.497 57.75 15.406 50.318 21.087 42.7c.546-.938.234-2.141-.7-2.695-.94-.526-2.129-.217-2.695.7z" transform="translate(-663 -1697) translate(664 1696) translate(3.5 12.25)"/>
                            <path d="M2.24 65.66h35.648c1.015-.096 1.791-.949 1.791-1.969s-.776-1.873-1.791-1.969H2.24c-1.016.096-1.792.95-1.792 1.97s.776 1.872 1.792 1.968z" transform="translate(-663 -1697) translate(664 1696) translate(3.5 12.25)"/>
                            <path d="M53.602 40.705c-5.471 7.35-11.176 14.52-17.114 21.508-.736.781-.736 2 0 2.782.774.754 2.008.754 2.782 0C45.418 57.75 51.333 50.318 57.015 42.7c.508-.938.18-2.11-.741-2.649-.921-.538-2.103-.249-2.672.654zM94.115 42.508c3.108 6.643 5.763 13.49 7.945 20.492.752 2.415 4.55 1.382 3.797-1.05-2.296-7.343-5.085-14.522-8.347-21.49-.554-.933-1.757-1.246-2.695-.7-.917.566-1.226 1.754-.7 2.695v.053z" transform="translate(-663 -1697) translate(664 1696) translate(3.5 12.25)"/>
                            <path d="M103.653 60.375h-11.13c-.748-.07-1.471.288-1.867.927-.396.638-.396 1.445 0 2.084.396.638 1.119.997 1.866.926h11.13c1.083 0 1.96-.877 1.96-1.96-.009-1.081-.878-1.958-1.96-1.977zM54.407 42.297c-1.102 4.743-1.75 9.59-2.59 14.403-.123.448-.063.926.167 1.33s.61.7 1.058.822c.928.259 1.89-.28 2.153-1.207.805-4.813 1.487-9.66 2.59-14.42.123-.448.064-.926-.166-1.33s-.61-.7-1.059-.823c-.448-.123-.926-.063-1.33.167s-.7.61-.822 1.059zM49.35 73.255c-.683 4.165-1.575 8.295-2.642 12.39-.124.448-.064.926.166 1.33s.61.7 1.058.823c.448.123.927.063 1.33-.167.404-.23.7-.61.823-1.058 1.062-4.095 1.943-8.225 2.642-12.39.124-.448.064-.927-.166-1.33-.23-.404-.61-.7-1.059-.823-.447-.123-.926-.064-1.33.166-.403.23-.7.61-.822 1.059zM91.21 26.04c6.755 0 6.773-10.5 0-10.5-6.772 0-6.772 10.5 0 10.5zM33.25 30.782c1.45 0 2.625-1.175 2.625-2.625s-1.175-2.625-2.625-2.625-2.625 1.176-2.625 2.625c0 1.45 1.175 2.625 2.625 2.625zM22.488 14.455c5.634 0 5.634-8.75 0-8.75-5.636 0-5.636 8.75 0 8.75z" transform="translate(-663 -1697) translate(664 1696) translate(3.5 12.25)"/>
                        </g>
                    </g>
                </g>
            </g>
        </g>
    </g>
</svg>
