<svg xmlns="http://www.w3.org/2000/svg" width="114" height="111" viewBox="0 0 114 111">
    <g fill="none" fill-rule="evenodd">
        <g>
            <path fill="#FFF" d="M0 0H1440V2804H0z" transform="translate(-225 -1697)"/>
            <g>
                <path d="M0 112L112 112 112 0 0 0z" transform="translate(-225 -1697) translate(226 1695)"/>
                <g fill-rule="nonzero">
                    <g>
                        <g>
                            <path fill="#FFD9B2" d="M16.363 75.25c.524-3.22 3.5-20.02 4.69-25.322 1.19-5.303 2.292-12.53 3.5-15.75 1.207-3.22 2.24-5.39 8.61-5.985 6.37-.596 22.872-.7 25.987-.683 3.115.017 7.945.438 7.438 7-.508 6.563-6.563 36.453-6.755 40.74-.052 3.6-1.88 6.94-4.883 8.925-2.555 1.54-21.525.263-26.758.35-5.232.087-10.044 1.942-11.445-.193-2.152-3.237-.91-5.862-.384-9.082z" transform="translate(-225 -1697) translate(226 1695) translate(5.25 10.5) translate(1.75 1.75)"/>
                            <path fill="#FFD9B2" d="M17.063 71.103c-4.135.225-8.28.178-12.408-.14-1.435-.286-2.675-1.183-3.395-2.457-.72-1.275-.847-2.8-.35-4.176.98-3.727 7.822-38.395 8.505-41.492.683-3.098 1.26-7.683 6.843-8.436 5.582-.752 28.787-.314 30.695-.577 1.907-.262 5.46-.542 5.127 5.547-.332 6.09-.63 8.103-.63 8.103s-17.255.28-20.213.91c-2.957.63-6.107.857-7.14 7.262-1.032 6.406-7.035 35.456-7.035 35.456z" transform="translate(-225 -1697) translate(226 1695) translate(5.25 10.5) translate(1.75 1.75)"/>
                            <path fill="#24CE30" d="M65.782 33.023c-5.022-5.408-4.427-9.608-4.322-14.788.547-6.483 4.208-12.297 9.818-15.592 5.774-2.975 14.734-2.835 18.427.42 3.692 3.254 8.383 6.772 9.03 17.5C99.382 31.29 91 34.3 87.763 35.928c-3.238 1.627-16.153 3.395-21.98-2.905z" transform="translate(-225 -1697) translate(226 1695) translate(5.25 10.5) translate(1.75 1.75)"/>
                        </g>
                        <g>
                            <path fill="#4C4C4C" d="M54.898 29.242c.314-2.17.612-4.357.892-6.527-.001-.524-.208-1.027-.578-1.4-.378-.36-.877-.566-1.4-.578-.519 0-1.017.208-1.382.578l-.315.402c-.177.303-.267.648-.263.998l-.314 2.345v-.525c-.158 1.225-.333 2.45-.508 3.657-.116.517-.042 1.058.21 1.523.258.444.678.77 1.172.91.516.134 1.063.059 1.523-.21.444-.254.766-.677.892-1.172h.07zM9.485 24.832l-7 34.3c-.577 2.8-1.26 5.6-1.75 8.435-.53 2.12-.073 4.365 1.243 6.108 1.592 1.75 3.797 1.75 6.02 1.645 3.045-.21 6.072-.245 9.117-.21 1.016-.096 1.792-.949 1.792-1.969s-.776-1.873-1.792-1.969c-2.45 0-4.917 0-7.385.106-1.068 0-2.188.244-3.255.192-1.75-.123-2.082-1.085-1.942-2.713.714-4.884 1.69-9.727 2.922-14.507l5.828-28.367c.507-2.485-3.29-3.5-3.798-1.05z" transform="translate(-225 -1697) translate(226 1695) translate(5.25 10.5)"/>
                            <path fill="#4C4C4C" d="M13.335 25.83c.185-1.662.61-3.29 1.26-4.83.991-1.847 2.987-2.927 5.075-2.747 4.48-.21 8.995-.158 13.475-.193s8.75 0 13.212 0c1.47 0 4.918-.647 5.548.998.63 1.645 0 4.095-.333 5.774-.35 2.485 3.5 3.5 3.798 1.05.543-3.867 1.925-10.167-3.237-11.497-2.723-.453-5.49-.582-8.243-.385h-9.1l-9.082.088c-2.794-.103-5.59.014-8.365.35-5.25.944-7 5.547-7.806 10.272-.402 2.485 3.395 3.5 3.798 1.05v.07zM24.098 38.763l-6.16 30.065-1.488 7.192c-.639 2.367-1.072 4.786-1.295 7.228-.1 1.806.598 3.564 1.908 4.812 1.606 1.144 3.615 1.568 5.547 1.172 10.115-.665 20.248.63 30.362 0 3.903-.262 7.298-.892 9.066-4.76 1.942-4.252 2.31-9.502 3.097-14 1.925-11.007 3.5-22.084 4.917-33.25.316-2.502-3.622-2.485-3.937 0-1.12 8.505-2.292 16.993-3.657 25.463-.7 4.328-1.453 8.645-2.258 12.95-.295 1.909-.686 3.801-1.172 5.67-.284 2.034-1.928 3.606-3.973 3.797-8.453 1.103-17.133 0-25.602 0-2.153 0-4.288 0-6.423.193-.945.21-1.925.21-2.87 0-1.4-.595-1.085-2.17-.858-3.5.753-4.392 1.75-8.75 2.678-13.125l5.915-28.788c.508-2.484-3.29-3.5-3.797-1.05v-.07z" transform="translate(-225 -1697) translate(226 1695) translate(5.25 10.5)"/>
                            <path fill="#4C4C4C" d="M28 39.76c.402-2.45.823-5.88 3.36-7 1.299-.471 2.681-.668 4.06-.578l5.828-.105c7.35-.104 14.7-.104 22.05 0 1.015-.095 1.791-.948 1.791-1.968s-.776-1.873-1.791-1.969c-8.558 0-17.116 0-25.673.157-3.343 0-7-.157-9.747 2.17-2.416 2.1-3.168 5.373-3.675 8.4-.403 2.486 3.395 3.5 3.797 1.05v-.157zM35.858 52.657l20.142.28c1.016-.095 1.792-.948 1.792-1.968S57.016 49.096 56 49l-20.09-.28c-1.016.096-1.792.949-1.792 1.969s.776 1.873 1.792 1.968h-.052zM33.25 64.278c6.388.087 12.758 0 19.127-.35 1.037-.072 1.848-.922 1.873-1.96-.01-1.089-.89-1.968-1.977-1.978-6.37.385-12.74.438-19.128.35-1.016.096-1.792.949-1.792 1.969s.776 1.873 1.792 1.969h.105zM31.92 75.355c6.412.342 12.838.342 19.25 0 2.52-.14 2.538-4.078 0-3.938-6.412.343-12.838.343-19.25 0-2.52-.122-2.52 3.816 0 3.938z" transform="translate(-225 -1697) translate(226 1695) translate(5.25 10.5)"/>
                            <path fill="#4C4C4C" d="M80.395 1.575c-8.645.175-15.382 6.562-17.797 14.578-2.346 7.717-1.313 19.25 6.72 23.397 7.42 3.815 18.06 3.903 25.094-.77 3.265-2.076 5.78-5.142 7.175-8.75 1.255-4.217 1.194-8.716-.175-12.898-1.138-4.631-3.703-8.788-7.332-11.882-4.27-3.5-9.17-3.833-14.472-3.5-2.24.105-2.258 3.605 0 3.5 3.814-.192 7.577-.263 10.92 1.75 2.974 1.954 5.258 4.795 6.527 8.12 2.642 6.493 3.027 14-2.415 19.128-5.442 5.127-13.108 5.355-19.81 3.64-3.667-.61-6.79-3.005-8.33-6.388-1.505-3.604-1.943-7.565-1.26-11.41 1.26-7.717 6.878-14.84 15.155-15.015.966 0 1.75-.784 1.75-1.75s-.784-1.75-1.75-1.75z" transform="translate(-225 -1697) translate(226 1695) translate(5.25 10.5)"/>
                            <path fill="#FFF" d="M72.38 23.363c1.858 1.99 3.917 3.785 6.142 5.355.92.553 2.083.487 2.934-.167.85-.653 1.214-1.76.916-2.791l-.262-.63c-.23-.384-.548-.708-.927-.945-.386-.262-.77-.543-1.138-.84l.525.42c-1.604-1.245-3.102-2.62-4.48-4.113-.496-.486-1.16-.761-1.855-.77-.693.016-1.355.29-1.855.77-.987 1.04-.987 2.67 0 3.71z" transform="translate(-225 -1697) translate(226 1695) translate(5.25 10.5)"/>
                            <path fill="#FFF" d="M82.635 28.473c3.36-3.343 6.65-6.755 9.887-10.203.703-.654.992-1.64.754-2.57-.237-.93-.963-1.656-1.893-1.894-.93-.237-1.916.052-2.57.754-3.238 3.5-6.528 6.86-9.888 10.202-1.014 1.03-1.014 2.682 0 3.71 1.036.996 2.674.996 3.71 0z" transform="translate(-225 -1697) translate(226 1695) translate(5.25 10.5)"/>
                        </g>
                    </g>
                </g>
            </g>
        </g>
    </g>
</svg>
