<svg xmlns="http://www.w3.org/2000/svg" width="114" height="111" viewBox="0 0 114 111">
    <g fill="none" fill-rule="evenodd">
        <g>
            <path fill="#FFF" d="M0 0H1440V2804H0z" transform="translate(-1100 -621)"/>
            <g>
                <path d="M0 111L112 111 112 0 0 0z" transform="translate(-1100 -621) translate(1101 620)"/>
                <g fill-rule="nonzero">
                    <g>
                        <g>
                            <path fill="#C9ECF2" d="M1.627 50.748l46.026 5.203s3.377-14.066 7.332-27.108C58.94 15.8 62.16 4.96 54.25 3.469c-7.91-1.492-26.81-4.007-31.727-3-4.918 1.005-8.068 6.468-11.848 18.61-3.78 12.14-9.048 31.669-9.048 31.669z" transform="translate(-1100 -621) translate(1101 620) translate(22.75 15.61) translate(1.75 5.203)"/>
                            <path fill="#F4DCE6" d="M.945 50.297l47.25 5.671s-2.45 10.91-5.547 13.875c-3.098 2.966-12.6 2.203-20.493 2.203-7.893 0-18.883.364-20.475-4.51-1.593-4.873-.735-17.24-.735-17.24z" transform="translate(-1100 -621) translate(1101 620) translate(22.75 15.61) translate(1.75 5.203)"/>
                            <path fill="#F4DCE6" d="M59.5 7.215s-1.278 9.973-1.75 11.586c-.472 1.613-8.75 34.965-9.712 38.277-1.519 4.395-3.373 8.668-5.548 12.783-1.01 1.45-2.607 2.393-4.375 2.584 0 0 8.102.277 10.657-3.92 2.556-4.197 7-20.812 8.348-26.276 1.348-5.463 4.795-19.824 5.88-23.448 1.085-3.625-.297-10.13-3.5-11.586z" transform="translate(-1100 -621) translate(1101 620) translate(22.75 15.61) translate(1.75 5.203)"/>
                        </g>
                        <g>
                            <path fill="#4C4C4C" d="M8.75 32.225c-2.082 6.087-3.64 12.383-5.25 18.61-.77 2.983-1.575 5.966-2.345 8.966-1.166 3.44-1.196 7.157-.088 10.615 1.171 2.933 3.783 5.063 6.913 5.636 4.077.902 8.295 1.318 12.425 1.839 4.13.52 8.75.988 13.02 1.335 3.675.278 7.543.78 10.71-1.474 2.686-2.125 4.587-5.07 5.407-8.377 1.26-3.99 2.276-8.082 3.395-12.14 2.334-8.545 4.667-17.113 7-25.704 1.127-4.057 2.021-8.174 2.678-12.331.438-3.018 1.05-6.504-.367-9.349-1.418-2.844-4.148-3.469-7-3.798-4.2-.451-8.4-.833-12.6-1.249-4.726-.468-9.433-.971-14.158-1.405-3.973-.381-7.49.243-10.237 3.313-2.748 3.07-3.658 6.938-4.796 10.614L8.75 32.225c-.256.924.292 1.88 1.225 2.133.933.254 1.896-.29 2.152-1.214l3.29-10.77c.876-3.428 1.963-6.8 3.255-10.095 1.4-3.121 3.675-5.55 7.298-5.584 3.685.15 7.359.491 11.008 1.023l10.272.954 4.883.486c1.779.003 3.548.266 5.25.78 2.922 1.249 2.012 5.637 1.75 8.082-.533 3.554-1.27 7.074-2.206 10.545-1.75 7.163-3.797 14.291-5.74 21.437-.933 3.665-1.895 7.296-2.887 10.892-.754 3.624-1.862 7.168-3.307 10.58-1.41 3.162-4.773 5.006-8.226 4.509-3.622-.173-7.262-.538-10.867-.92-3.605-.38-7.525-.884-11.252-1.439-3.185-.468-7.805-.416-9.713-3.469-2.117-3.278-.91-7.44 0-10.891.735-2.74 1.435-5.481 2.135-8.221 1.557-6.019 3.08-12.141 5.092-17.986.718-2.116-2.66-3.035-3.377-.919l-.035.087z" transform="translate(-1100 -621) translate(1101 620) translate(22.75 15.61)"/>
                            <path fill="#4C4C4C" d="M56.752 9.92c2.842 1.656 4.958 4.303 5.933 7.424 1.015 3.468.175 7.11-.648 10.406-1.75 7.406-3.727 14.777-5.582 22.165l-2.87 11.343c-.552 3.43-1.638 6.753-3.22 9.851-2.818 4.51-8.102 4.805-12.95 4.753-1.015 0-1.837.815-1.837 1.82 0 1.006.822 1.822 1.837 1.822 5.617 0 11.55-.555 15.225-5.203 2.06-3.088 3.448-6.567 4.078-10.216L59.99 51.06l3.29-13.025c1.102-4.353 2.45-8.672 3.15-13.164 1.137-7.232-1.26-14.1-7.823-17.968-.874-.508-1.999-.217-2.51.65-.513.867-.22 1.981.655 2.489v-.121z" transform="translate(-1100 -621) translate(1101 620) translate(22.75 15.61)"/>
                            <path fill="#4C4C4C" d="M4.077 57.009c14.794 2.012 29.622 3.746 44.486 5.203 2.24.225 2.222-3.243 0-3.469-14.549-1.457-29.068-3.191-43.558-5.203-2.205-.295-3.15 3.053-.928 3.348v.12zM29.4 4.388l-.175.416v-.121l-.193.26h.123l-.42.173.508-.121h-.473c.618-.043 1.237-.043 1.855 0 .7 0 1.4 0 2.083.087h-.456c.144.018.285.053.42.104l-.42-.174c.21.087.193.191 0-.086l-.175-.243v.121l-.174-.416c.01.069.01.14 0 .208v-.468.208-.468c.007.04.007.08 0 .121l.175-.416c-.14.26 0 .104.454-.434-.375.251-.657.616-.804 1.04-.111.452-.049.928.174 1.336.234.399.619.689 1.068.806.45.117.929.052 1.33-.181.684-.428 1.094-1.176 1.085-1.978-.016-.733-.363-1.42-.945-1.873-.967-.558-2.09-.795-3.202-.676-.799-.052-1.6-.052-2.398 0-.55.029-1.088.177-1.575.434-.598.334-1.047.879-1.26 1.526-.191.68.054 1.409.62 1.84.565.43 1.338.478 1.953.12.379-.247.662-.614.805-1.041l.017-.104zM10.22 14.083c-.745 1.558-1.087 3.274-.998 4.995-.005.349.073.693.228 1.006.109.318.295.604.543.833.232.25.528.436.857.537.302.172.65.25.998.226.7-.004 1.372-.278 1.872-.763.493-.486.764-1.15.752-1.839-.052-.525-.052-1.053 0-1.578l-.104.694c.086-.657.262-1.3.524-1.908l-.262.624v-.173c.187-.292.296-.626.315-.972.096-.34.096-.7 0-1.04-.195-.65-.625-1.206-1.207-1.561-.618-.344-1.345-.438-2.03-.26l-.63.26c-.382.239-.704.559-.945.936l.087-.017zM6.86 27.75l-.805 3.018c-.096.34-.096.7 0 1.04.02.346.128.68.315.972.159.292.387.542.665.728.257.223.562.383.893.468 1.373.375 2.8-.39 3.237-1.734l.788-3.035c.103-.333.103-.69 0-1.023-.016-.346-.125-.682-.316-.972-.146-.3-.377-.554-.665-.728-.252-.229-.56-.39-.892-.468-1.37-.383-2.799.386-3.22 1.734z" transform="translate(-1100 -621) translate(1101 620) translate(22.75 15.61)"/>
                            <path fill="#FFF" d="M26.25 25.86c3.133.104 6.248.312 9.362.607.661.004 1.296-.254 1.763-.717.467-.463.727-1.092.723-1.746-.028-1.349-1.125-2.435-2.486-2.463-3.114-.295-6.23-.503-9.362-.624-.94-.079-1.846.375-2.34 1.172-.495.797-.495 1.802 0 2.599.494.796 1.4 1.25 2.34 1.172zM23.66 35.138l6.44.486c.662 0 1.297-.262 1.763-.727.467-.466.727-1.097.722-1.753.007-.65-.252-1.276-.718-1.734-.478-.44-1.098-.698-1.75-.729l-6.44-.486c-.655.013-1.281.274-1.75.729-.463.461-.727 1.083-.735 1.734.013.65.276 1.27.735 1.735.477.442 1.098.7 1.75.728l-.017.017z" transform="translate(-1100 -621) translate(1101 620) translate(22.75 15.61)"/>
                        </g>
                    </g>
                </g>
            </g>
        </g>
    </g>
</svg>
